<svg xmlns="http://www.w3.org/2000/svg" viewBox="0 0 2816 2816" fill="#fafafa" aria-hidden="true"><path d="M1034 1265c6.215 3.019 8.058 5.086 12 11 1.344 5.374 1.432 9.742-.375 15-5.355 8.16-14.865 12.394-23.25 17-10.375 5.796-20.441 11.977-30.488 18.32-7.273 4.547-14.653 8.891-22.051 13.231-7.899 4.668-15.734 9.438-23.571 14.209a4076 4076 0 0 1-25.687 15.486 1741 1741 0 0 0-13.453 8.192c-8.595 5.266-17.269 10.393-25.953 15.511-16.621 9.804-33.098 19.851-49.531 29.965-16.444 10.118-32.916 20.163-49.664 29.77-5.086 2.962-10.047 6.101-14.977 9.316 1.264 5.054 3.362 6.73 7.045 10.402l3.926 3.934 4.283 4.246 4.377 4.372q4.596 4.586 9.203 9.161c4.691 4.661 9.372 9.331 14.051 14.004l8.931 8.901 4.241 4.227 3.992 3.963 3.49 3.47a212 212 0 0 0 7.614 6.932c4.688 4.129 8.67 8.747 12.847 13.388l3.699 3.236c4.743 4.15 9.17 8.521 13.619 12.985l5.562 5.572 2.945 2.956q4.588 4.607 9.182 9.207 11.403 11.426 22.799 22.86 9.643 9.674 19.294 19.34 4.512 4.523 9.02 9.051l5.562 5.572 4.879 4.896c4.034 3.931 8.178 7.643 12.439 11.325a897 897 0 0 1 10.75 10.438l5.547 5.433c6.471 7.057 8.703 10.525 8.703 20.129-3.505 8.178-6.072 11.036-14 15-6.936.694-11.166-.199-17-4-5.173-4.883-10.026-9.878-14.688-15.25-3.164-3.755-3.164-3.755-6.64-6.609-6.519-5.778-12.596-11.963-18.734-18.141l-4.079-4.09q-8.607-8.634-17.206-17.277-6.293-6.319-12.591-12.633l-3.908-3.934-3.681-3.691-3.211-3.227a188 188 0 0 0-7.124-6.51c-4.453-3.915-8.629-8.017-12.814-12.216l-5.137-5.148-5.499-5.524-5.693-5.704q-10.527-10.55-21.046-21.107a27266 27266 0 0 0-17.814-17.86q-4.163-4.174-8.322-8.353l-5.137-5.148-4.503-4.518c-3.945-3.838-8.016-7.456-12.173-11.06-3.399-3.33-6.772-6.687-10.125-10.062l-2.868-2.88q-6.026-6.054-12.044-12.116-4.417-4.442-8.838-8.88l-5.305-5.339A256 256 0 0 0 712 1464c-3.562-3.188-3.562-3.188-6-6 1-4 1-4 4.156-6.27l4.344-2.542 4.945-2.93L725 1443q6.19-3.714 12.375-7.438L750 1428l15.207-9.125q4.745-2.846 9.492-5.687a5534 5534 0 0 0 29.113-17.563l3.634-2.206q8.227-4.996 16.437-10.021c11.638-7.12 23.362-14.07 35.148-20.941 10.21-5.97 20.271-12.166 30.324-18.395 8.438-5.159 16.963-10.16 25.514-15.128 7.785-4.529 15.464-9.209 23.131-13.934 5.071-3.041 10.16-6.052 15.25-9.062A4973 4973 0 0 0 983.312 1288c10.17-6.107 20.368-12.151 30.688-18l5.562-3.188c5.29-2.16 8.773-2.538 14.438-1.812"/><path d="M1377 887c7.533 5.545 10.747 10.986 13 20 1.008 12.496-4.21 24.044-9.188 35.25-8.352 19.08-16.051 38.423-23.812 57.75l-2.097 5.212a5200 5200 0 0 0-35.715 91.226l-1.835 4.799c-3.146 8.24-3.146 8.24-5.353 16.763 7.802.077 15.454-.168 23.226-.835l6.634-.561 7.195-.624 11.632-.986q6.252-.532 12.503-1.066c14.972-1.279 29.945-2.532 44.919-3.783l4.715-.395c147.639-12.337 295.543-23.933 443.551-30.688l4.233-.2c43.921-2.05 43.921-2.05 54.392 4.138 7.153 6.884 8.821 13.154 9.438 22.938-.582 9.392-2.127 14.538-8.5 21.5-10.996 7.933-24.963 7.717-38.067 8.964l-6.569.647c-6.766.662-13.534 1.309-20.302 1.951l-6.14.584a13784 13784 0 0 1-36.299 3.38c-101.254 9.332-202.424 19.522-303.561 30.036l-8.14.846a42471 42471 0 0 0-117.018 12.318q-11.59 1.235-23.181 2.461a11897 11897 0 0 0-35.254 3.797q-6.418.697-12.838 1.377c-5.808.615-11.612 1.253-17.417 1.896l-5.152.532c-8.925.749-8.925.749-16 5.773-1.453 3.663-2.764 7.383-4 11.125l-2.414 7.184-1.282 3.835c-2.155 6.373-4.424 12.706-6.679 19.044-29.729 84.08-57.209 168.748-80.625 254.812l-1.24 4.514c-18.975 69.157-35.751 140.012-42.76 211.486l-.582 4.836c-2.342 28.937-3.852 63.57 15.832 87.039 9.845 8.204 20.469 8.236 32.75 7.125 22.843-4.586 42.097-18.875 60-33l3.277-2.582c9.01-7.363 17.071-15.649 25.219-23.941C1282 1749 1282 1749 1288 1744a782 782 0 0 0 7-8q3.49-3.76 7-7.5c8.022-8.573 15.591-17.39 23-26.5l4.375-5.312c5.288-6.503 10.466-13.083 15.625-19.688l3.355-4.262a764 764 0 0 0 20.465-27.297 751 751 0 0 1 6.11-8.414c8.336-11.335 16.173-22.986 23.901-34.741 3.968-6.033 7.934-11.973 12.274-17.747 8.914-11.971 13.038-24.047 17.218-38.187 9.916-33.512 23.711-66.113 40.271-96.875a459 459 0 0 0 4.687-8.954c9.863-19.297 21.483-37.649 33.719-55.523l2.559-3.824c9.678-14.342 20.384-27.876 31.441-41.176l2.57-3.098c10.475-12.519 21.662-24.224 33.18-35.777l3.266-3.28c5.502-5.491 11.049-10.818 16.984-15.845l3.867-3.289c24.742-20.594 51.221-37.619 80.133-51.711l6.625-3.375c45.575-20.92 102.059-30.528 150.152-12.871 26.151 10.998 45.574 30.459 57.223 56.246 15.394 39.792 9.338 84.084-6.945 122.602-11.182 24.336-27.364 52.722-53.43 63.148-14.197 3.837-24.905 1.439-37.625-5.75-8.053-5.845-12.275-12.464-15-22 0-13.459 5.476-21.421 12.832-32.199 16.442-24.916 26.955-54.656 22.043-84.676-3.06-9.996-7.422-16.909-15.875-23.125-20.501-9.386-41.694-4.445-62 3-26.189 10.115-48.379 27.278-69 46l-3.812 3.25c-2.846 2.455-5.531 5.093-8.188 7.75l-4.875 4.812A243 243 0 0 0 1641 1363l-2.641 3.012c-73.228 84.059-128.256 203.375-122.047 316.691 2.821 32.541 14.161 61.88 38.688 84.297 26.061 19.235 56.682 23.702 88.211 19.754 31.157-4.905 60.924-15.002 88.789-29.754l3.906-1.969c18.573-9.499 36.083-20.988 53.094-33.031l3.629-2.547c12.234-8.648 23.871-17.85 35.371-27.453a2022 2022 0 0 1 6.812-5.25c6.558-5.112 12.604-10.654 18.618-16.391 3.775-3.552 7.665-6.949 11.57-10.359 7.646-7.019 15.193-14.128 22.5-21.5 3.095-3.095 6.246-6.143 9.562-9 4.181-3.716 7.863-7.757 11.602-11.91 5.522-5.942 11.327-11.598 17.102-17.293 3.918-3.977 7.592-8.068 11.234-12.297q2.739-3.01 5.5-6c23.987-26.102 46.492-53.683 68.051-81.809 2.389-3.113 4.794-6.215 7.199-9.316 5.422-7.032 10.639-14.21 15.855-21.395 11.61-15.323 11.61-15.323 22.395-17.48 8.446 0 13.414 1.164 20.312 6.062 6.149 6.566 7.688 12.026 7.688 20.938-3.953 19.766-19.878 37.57-31 54l-4.074 6.027c-11.286 16.622-22.805 32.955-35.039 48.895a1139 1139 0 0 0-10.075 13.39c-6.047 8.083-12.406 15.889-18.812 23.688q-3.409 4.185-6.812 8.375l-3.254 4a1018 1018 0 0 0-7.184 9c-4.085 5.039-8.384 9.829-12.75 14.625l-3.5 4c-7.694 8.793-15.585 17.407-23.5 26l-2.934 3.219c-7.782 8.459-15.824 16.644-23.941 24.781l-3.243 3.257c-5.469 5.459-11.022 10.699-16.882 15.743a1361 1361 0 0 0-7.812 7.375c-6.192 5.831-12.568 11.281-19.188 16.625l-5.125 4.75c-7.31 6.532-15.049 12.355-22.875 18.25a4526 4526 0 0 0-6.5 5.062c-73.074 56.218-163.896 97.642-257.938 86.813-35.466-5.594-68.475-19.846-94.562-44.875l-5.375-5.062C1429.632 1794.537 1410 1743.354 1410 1698c-4.913 2.456-6.35 4.976-9.438 9.5l-3.203 4.637L1394 1717c-14.929 20.918-30.287 41.468-47 61l-4.375 5.375c-13.914 16.922-13.914 16.922-21.086 24.078a145 145 0 0 0-6.793 7.293c-4.684 5.32-9.664 10.317-14.684 15.316l-2.88 2.893c-5.232 5.225-10.561 10.242-16.182 15.045l-3.605 3.176c-40.578 35.533-89.612 66.17-145.395 63.824-23.462-2.428-42.475-12.282-59.062-29.125-42.48-52.594-38.849-125.663-32.157-189.156 10.096-91.124 33.613-180.869 59.219-268.719l1.771-6.084c11.376-38.991 23.634-77.671 36.105-116.324a7742 7742 0 0 0 5.429-16.924c5.97-18.628 12.265-37.123 18.797-55.562l1.843-5.219 1.641-4.619c1.345-4.06 2.4-8.115 3.414-12.268-29.076 3.014-58.115 6.253-87.131 9.788q-9.326 1.135-18.653 2.257a44892 44892 0 0 0-52.906 6.403 21083 21083 0 0 1-32.666 3.947q-6.165.742-12.329 1.498c-5.728.702-11.457 1.39-17.187 2.075l-5.038.628c-32.462 3.822-32.462 3.822-46.778-5.721-8.79-7.899-12.406-17.442-14.312-28.875-.812-15.758 2.929-26.128 13.312-37.688 13.642-12.254 32.59-11.997 50.008-13.554l6.718-.621c7.362-.678 14.724-1.345 22.087-2.012q7.763-.711 15.526-1.425 14.527-1.335 29.055-2.66c18.666-1.704 37.33-3.431 55.993-5.165l28.938-2.685q11.773-1.091 23.545-2.186 11.146-1.036 22.294-2.064 6.057-.56 12.114-1.126c12.466-1.147 24.907-2.182 37.41-2.814l1.269-3.861c10.081-29.922 21.626-59.407 33.06-88.835q2.325-5.991 4.636-11.988c8.929-23.137 17.963-46.234 27.035-69.316l1.8-4.584c25.482-64.752 25.482-64.752 43.2-74.416 23.133-8.636 46.295-.529 67 11"/></svg>